<svg width="24" height="24" viewBox="0 0 24 24" fill="none" xmlns="http://www.w3.org/2000/svg">
<path d="M6.13135 5.89526H6.43179C6.88838 5.89526 7.25849 5.51835 7.25849 5.05367V2.73124V1.86254C7.25849 1.39786 6.88838 1.021 6.43179 1.021H6.13135C5.6748 1.021 5.30469 1.39786 5.30469 1.86254V2.73129V5.05367C5.30469 5.51835 5.6748 5.89526 6.13135 5.89526Z" fill="white"/>
<path d="M16.7349 5.87427H17.0354C17.4919 5.87427 17.862 5.4974 17.862 5.03268V2.51068V1.8415C17.862 1.37687 17.4919 1 17.0354 1H16.7349C16.2783 1 15.9082 1.37687 15.9082 1.8415V2.51068V5.03263C15.9083 5.4974 16.2784 5.87427 16.7349 5.87427Z" fill="white"/>
<path d="M20.6561 2.7312H18.5344V5.25315C18.5344 6.09443 17.8621 6.55845 17.0358 6.55845H16.7354C15.909 6.55845 15.2367 5.87402 15.2367 5.03274V2.7312H7.93083V5.05359C7.93083 5.89487 7.25855 6.5793 6.43214 6.5793H6.13171C5.30535 6.5793 4.63306 5.89487 4.63306 5.05359V2.7312H2.34396C1.60291 2.7312 1 3.34497 1 4.09941V20.6319C1 21.3863 1.60291 22.0001 2.34396 22.0001H20.6561C21.3971 22.0001 22 21.3863 22 20.6319V4.09941C22.0001 3.34501 21.3971 2.7312 20.6561 2.7312ZM20.6561 20.6319H2.34401L2.34396 8.14699H20.6563L20.657 20.6319C20.6569 20.6319 20.6567 20.6319 20.6561 20.6319Z" fill="white"/>
<path d="M12.1937 12.3346H14.6069C14.7025 12.3346 14.7801 12.2557 14.7801 12.1583V10.0311C14.7801 9.93369 14.7025 9.85474 14.6069 9.85474H12.1937C12.0981 9.85474 12.0205 9.93369 12.0205 10.0311V12.1583C12.0205 12.2557 12.0981 12.3346 12.1937 12.3346Z" fill="white"/>
<path d="M16.1322 12.3346H18.5454C18.641 12.3346 18.7186 12.2557 18.7186 12.1583V10.0311C18.7186 9.93369 18.641 9.85474 18.5454 9.85474H16.1322C16.0365 9.85474 15.959 9.93369 15.959 10.0311V12.1583C15.959 12.2557 16.0365 12.3346 16.1322 12.3346Z" fill="white"/>
<path d="M4.31774 15.8173H6.73087C6.82652 15.8173 6.90408 15.7384 6.90408 15.641V13.5137C6.90408 13.4164 6.82652 13.3374 6.73087 13.3374H4.31774C4.22209 13.3374 4.14453 13.4164 4.14453 13.5137V15.641C4.14453 15.7384 4.22209 15.8173 4.31774 15.8173Z" fill="white"/>
<path d="M8.25524 15.8173H10.6684C10.764 15.8173 10.8416 15.7384 10.8416 15.641V13.5137C10.8416 13.4164 10.764 13.3374 10.6684 13.3374H8.25524C8.15959 13.3374 8.08203 13.4164 8.08203 13.5137V15.641C8.08203 15.7384 8.15959 15.8173 8.25524 15.8173Z" fill="white"/>
<path d="M12.1937 15.8173H14.6068C14.7025 15.8173 14.7801 15.7384 14.7801 15.641V13.5137C14.7801 13.4164 14.7025 13.3374 14.6068 13.3374H12.1937C12.0981 13.3374 12.0205 13.4164 12.0205 13.5137V15.641C12.0205 15.7384 12.0981 15.8173 12.1937 15.8173Z" fill="white"/>
<path d="M16.1322 15.8173H18.5454C18.641 15.8173 18.7186 15.7384 18.7186 15.641V13.5137C18.7186 13.4164 18.641 13.3374 18.5454 13.3374H16.1322C16.0365 13.3374 15.959 13.4164 15.959 13.5137V15.641C15.959 15.7384 16.0365 15.8173 16.1322 15.8173Z" fill="white"/>
<path d="M6.73082 16.8198H4.31774C4.22209 16.8198 4.14453 16.8988 4.14453 16.9962V19.1234C4.14453 19.2208 4.22209 19.2998 4.31774 19.2998H6.73087C6.82652 19.2998 6.90408 19.2208 6.90408 19.1234V16.9962C6.90404 16.8988 6.82648 16.8198 6.73082 16.8198Z" fill="white"/>
<path d="M10.6684 16.8198H8.25524C8.15959 16.8198 8.08203 16.8988 8.08203 16.9962V19.1234C8.08203 19.2208 8.15959 19.2998 8.25524 19.2998H10.6684C10.764 19.2998 10.8416 19.2208 10.8416 19.1234V16.9962C10.8416 16.8988 10.764 16.8198 10.6684 16.8198Z" fill="white"/>
<path d="M14.6069 16.8198H12.1937C12.0981 16.8198 12.0205 16.8988 12.0205 16.9962V19.1234C12.0205 19.2208 12.0981 19.2998 12.1937 19.2998H14.6069C14.7025 19.2998 14.7801 19.2208 14.7801 19.1234V16.9962C14.7801 16.8988 14.7025 16.8198 14.6069 16.8198Z" fill="white"/>
<path d="M18.5454 16.8198H16.1322C16.0365 16.8198 15.959 16.8988 15.959 16.9962V19.1234C15.959 19.2208 16.0365 19.2998 16.1322 19.2998H18.5454C18.641 19.2998 18.7186 19.2208 18.7186 19.1234V16.9962C18.7186 16.8988 18.641 16.8198 18.5454 16.8198Z" fill="white"/>
</svg>
