<svg width="16" height="17" viewBox="0 0 16 17" fill="none" xmlns="http://www.w3.org/2000/svg">
<path d="M8 1C4.69162 1 2 3.33899 2 6.21393C2 9.82742 8.0059 16 8.0059 16C8.0059 16 14 9.64972 14 6.21393C14 3.33899 11.3085 1 8 1ZM9.81032 7.74057C9.31115 8.17426 8.65563 8.39114 8 8.39114C7.34448 8.39114 6.68874 8.17426 6.18978 7.74057C5.19154 6.8732 5.19154 5.46182 6.18978 4.59436C6.67315 4.17413 7.31614 3.94269 8 3.94269C8.68386 3.94269 9.32674 4.17422 9.81032 4.59436C10.8086 5.46182 10.8086 6.8732 9.81032 7.74057Z" fill="#2E2E2E" fill-opacity="0.5"/>
</svg>
