<svg width="16" height="16" viewBox="0 0 16 16" fill="none" xmlns="http://www.w3.org/2000/svg">
<path d="M7.5 1C8.97933 1 10.2279 2.19924 10.1765 3.78459C12.0349 4.73213 13.2718 6.60402 13.3844 8.71946C14.3348 9.13039 15 10.0768 15 11.1786C15 12.6579 13.8008 13.8571 12.3214 13.8571C11.9243 13.8571 11.5474 13.7707 11.2085 13.6157C10.1698 14.4579 8.87101 14.9286 7.5 14.9286C6.12922 14.9286 4.83051 14.4581 3.79165 13.6157C3.45296 13.7706 3.07587 13.8571 2.67857 13.8571C1.19924 13.8571 0 12.6579 0 11.1786C0 10.0768 0.665211 9.13039 1.61591 8.71907C1.72833 6.60307 2.96619 4.73159 4.82357 3.78432C4.78161 2.19268 6.02067 1 7.5 1ZM9.90623 4.85636L9.8994 4.87055C9.4608 5.75171 8.55111 6.35714 7.5 6.35714C6.44342 6.35714 5.52973 5.74539 5.09379 4.85677C3.77355 5.61687 2.87838 6.96594 2.7081 8.50072C4.17421 8.51638 5.35714 9.70933 5.35714 11.1786C5.35714 11.8587 5.10367 12.4796 4.68604 12.952C5.49586 13.5349 6.47232 13.8571 7.5 13.8571C8.52776 13.8571 9.50423 13.5348 10.3142 12.9513C9.89614 12.4791 9.64286 11.8584 9.64286 11.1786C9.64286 9.73817 10.7798 8.56331 12.2919 8.50069C12.1217 6.96665 11.2273 5.61755 9.90623 4.85636Z" fill="#2E2E2E" fill-opacity="0.5"/>
</svg>
