<svg width="16" height="16" viewBox="0 0 16 16" fill="none" xmlns="http://www.w3.org/2000/svg">
<path d="M8.00078 7.68003C9.76809 7.68003 11.2008 6.24734 11.2008 4.48003C11.2008 2.71272 9.76809 1.28003 8.00078 1.28003C6.23347 1.28003 4.80078 2.71272 4.80078 4.48003C4.80078 6.24734 6.23347 7.68003 8.00078 7.68003Z" fill="#2E2E2E" fill-opacity="0.5"/>
<path d="M8.6787 8.32007H7.3219C6.52599 8.32259 5.73836 8.48185 5.00399 8.78876C4.26963 9.09567 3.6029 9.54422 3.04189 10.1088C2.48087 10.6734 2.03655 11.3429 1.7343 12.0792C1.43205 12.8155 1.27778 13.6042 1.2803 14.4001C1.2803 14.4849 1.31402 14.5663 1.37403 14.6263C1.43404 14.6864 1.51543 14.7201 1.6003 14.7201H14.4003C14.4891 14.712 14.5716 14.6705 14.631 14.604C14.6904 14.5374 14.7223 14.4508 14.7203 14.3617C14.7169 12.7604 14.0793 11.2256 12.947 10.0933C11.8147 8.96106 10.28 8.32345 8.6787 8.32007Z" fill="#2E2E2E" fill-opacity="0.5"/>
</svg>
