<svg width="24" height="24" viewBox="0 0 24 24" fill="none" xmlns="http://www.w3.org/2000/svg">
<path d="M6.13171 5.89514H6.43215C6.88874 5.89514 7.25886 5.51823 7.25886 5.05355V2.73112V1.86242C7.25886 1.39774 6.88874 1.02087 6.43215 1.02087H6.13171C5.67517 1.02087 5.30505 1.39774 5.30505 1.86242V2.73117V5.05355C5.30505 5.51823 5.67517 5.89514 6.13171 5.89514Z" fill="white"/>
<path d="M16.7352 5.87427H17.0356C17.4922 5.87427 17.8623 5.4974 17.8623 5.03268V2.51068V1.8415C17.8623 1.37687 17.4922 1 17.0356 1H16.7352C16.2786 1 15.9084 1.37687 15.9084 1.8415V2.51068V5.03263C15.9085 5.4974 16.2786 5.87427 16.7352 5.87427Z" fill="white"/>
<path d="M20.6561 2.73108H18.5344V5.25303C18.5344 6.09431 17.8621 6.55833 17.0358 6.55833H16.7354C15.909 6.55833 15.2367 5.8739 15.2367 5.03261V2.73108H7.93083V5.05347C7.93083 5.89475 7.25855 6.57918 6.43214 6.57918H6.13171C5.30535 6.57918 4.63306 5.89475 4.63306 5.05347V2.73108H2.34396C1.60291 2.73108 1 3.34485 1 4.09929V20.6318C1 21.3862 1.60291 22 2.34396 22H20.6561C21.3971 22 22 21.3862 22 20.6318V4.09929C22.0001 3.34489 21.3971 2.73108 20.6561 2.73108ZM20.6561 20.6318H2.34401L2.34396 8.14687H20.6563L20.657 20.6317C20.6569 20.6317 20.6567 20.6318 20.6561 20.6318Z" fill="white"/>
<path d="M12.1938 12.3348H14.607C14.7027 12.3348 14.7802 12.2558 14.7802 12.1584V10.0312C14.7802 9.93381 14.7027 9.85486 14.607 9.85486H12.1938C12.0982 9.85486 12.0206 9.93381 12.0206 10.0312V12.1584C12.0206 12.2558 12.0982 12.3348 12.1938 12.3348Z" fill="white"/>
<path d="M16.1321 12.3348H18.5452C18.6409 12.3348 18.7185 12.2558 18.7185 12.1584V10.0312C18.7185 9.93381 18.6409 9.85486 18.5452 9.85486H16.1321C16.0364 9.85486 15.9589 9.93381 15.9589 10.0312V12.1584C15.9589 12.2558 16.0364 12.3348 16.1321 12.3348Z" fill="white"/>
<path d="M4.3175 15.8172H6.73062C6.82628 15.8172 6.90384 15.7383 6.90384 15.6409V13.5136C6.90384 13.4162 6.82628 13.3373 6.73062 13.3373H4.3175C4.22184 13.3373 4.14429 13.4162 4.14429 13.5136V15.6409C4.14429 15.7383 4.22184 15.8172 4.3175 15.8172Z" fill="white"/>
<path d="M8.25573 15.8172H10.6689C10.7645 15.8172 10.8421 15.7383 10.8421 15.6409V13.5136C10.8421 13.4162 10.7645 13.3373 10.6689 13.3373H8.25573C8.16008 13.3373 8.08252 13.4162 8.08252 13.5136V15.6409C8.08252 15.7383 8.16008 15.8172 8.25573 15.8172Z" fill="white"/>
<path d="M12.1938 15.8172H14.607C14.7026 15.8172 14.7802 15.7383 14.7802 15.6409V13.5136C14.7802 13.4162 14.7026 13.3373 14.607 13.3373H12.1938C12.0982 13.3373 12.0206 13.4162 12.0206 13.5136V15.6409C12.0206 15.7383 12.0982 15.8172 12.1938 15.8172Z" fill="white"/>
<path d="M16.1321 15.8172H18.5452C18.6409 15.8172 18.7185 15.7383 18.7185 15.6409V13.5136C18.7185 13.4162 18.6409 13.3373 18.5452 13.3373H16.1321C16.0364 13.3373 15.9589 13.4162 15.9589 13.5136V15.6409C15.9589 15.7383 16.0364 15.8172 16.1321 15.8172Z" fill="white"/>
<path d="M6.73058 16.8198H4.3175C4.22184 16.8198 4.14429 16.8988 4.14429 16.9962V19.1234C4.14429 19.2208 4.22184 19.2998 4.3175 19.2998H6.73062C6.82628 19.2998 6.90384 19.2208 6.90384 19.1234V16.9962C6.90379 16.8988 6.82624 16.8198 6.73058 16.8198Z" fill="white"/>
<path d="M10.6689 16.8198H8.25573C8.16008 16.8198 8.08252 16.8988 8.08252 16.9962V19.1234C8.08252 19.2208 8.16008 19.2998 8.25573 19.2998H10.6689C10.7645 19.2998 10.8421 19.2208 10.8421 19.1234V16.9962C10.8421 16.8988 10.7645 16.8198 10.6689 16.8198Z" fill="white"/>
<path d="M14.6071 16.8198H12.194C12.0983 16.8198 12.0208 16.8988 12.0208 16.9962V19.1234C12.0208 19.2208 12.0983 19.2998 12.194 19.2998H14.6071C14.7028 19.2998 14.7803 19.2208 14.7803 19.1234V16.9962C14.7803 16.8988 14.7028 16.8198 14.6071 16.8198Z" fill="white"/>
<path d="M18.5452 16.8198H16.1321C16.0364 16.8198 15.9589 16.8988 15.9589 16.9962V19.1234C15.9589 19.2208 16.0364 19.2998 16.1321 19.2998H18.5452C18.6409 19.2998 18.7185 19.2208 18.7185 19.1234V16.9962C18.7185 16.8988 18.6409 16.8198 18.5452 16.8198Z" fill="white"/>
</svg>
