<svg width="14" height="14" viewBox="0 0 14 14" fill="none" xmlns="http://www.w3.org/2000/svg">
<path d="M5.63457 11.2632C6.88591 11.2633 8.10146 10.8458 9.08868 10.0768L12.8131 13.8013C13.0914 14.07 13.5347 14.0623 13.8034 13.7841C14.0655 13.5126 14.0655 13.0824 13.8034 12.811L10.079 9.08655C11.987 6.6304 11.5427 3.09254 9.08652 1.18451C6.63037 -0.723525 3.09254 -0.27921 1.18451 2.17694C-0.723525 4.63309 -0.27921 8.17095 2.17694 10.079C3.16577 10.8472 4.38241 11.2639 5.63457 11.2632ZM2.64201 2.63985C4.29477 0.987057 6.97443 0.987027 8.62722 2.63979C10.28 4.29255 10.28 6.97221 8.62728 8.62501C6.97452 10.2778 4.29486 10.2778 2.64207 8.62507C2.64204 8.62504 2.64204 8.62504 2.64201 8.62501C0.989241 6.98428 0.979504 4.31439 2.62022 2.66163C2.62747 2.65435 2.63472 2.6471 2.64201 2.63985Z" fill="#2E2E2E" fill-opacity="0.5"/>
</svg>
