<svg width="24" height="24" viewBox="0 0 24 24" fill="none" xmlns="http://www.w3.org/2000/svg">
<path d="M12 3C7.03749 3 3 7.03749 3 12C3 16.9625 7.03749 21 12 21C16.9625 21 21 16.9625 21 12C21 7.03749 16.9625 3 12 3ZM12 19.875C7.65765 19.875 4.12501 16.3424 4.12501 12C4.12501 7.65765 7.65765 4.12501 12 4.12501C16.3424 4.12501 19.875 7.65765 19.875 12C19.875 16.3424 16.3424 19.875 12 19.875Z" fill="white"/>
<path d="M12.5625 6.375H11.4375V12.2329L14.9773 15.7727L15.7727 14.9773L12.5625 11.7671V6.375Z" fill="white"/>
</svg>
